<mxfile host="app.diagrams.net" modified="2022-06-27T06:13:14.899Z" agent="5.0 (Windows NT 10.0; Win64; x64) AppleWebKit/537.36 (KHTML, like Gecko) Chrome/102.0.0.0 Safari/537.36" etag="KyeLwp15Dw0mEmz56tvV" version="20.0.3" type="github">
  <diagram name="Page-1" id="2cc2dc42-3aac-f2a9-1cec-7a8b7cbee084">
    <mxGraphModel dx="1778" dy="953" grid="1" gridSize="10" guides="1" tooltips="1" connect="1" arrows="1" fold="1" page="1" pageScale="1" pageWidth="1100" pageHeight="850" background="none" math="0" shadow="0">
      <root>
        <mxCell id="0" />
        <mxCell id="1" parent="0" />
        <mxCell id="rQr_zQE67p7i65nkuha4-5" value="" style="rounded=0;whiteSpace=wrap;html=1;" vertex="1" parent="1">
          <mxGeometry x="60" y="50" width="440" height="600" as="geometry" />
        </mxCell>
        <mxCell id="rQr_zQE67p7i65nkuha4-7" value="&lt;font style=&quot;font-size: 30px;&quot;&gt;&lt;b&gt;AppBar&lt;/b&gt;&lt;/font&gt;" style="rounded=1;whiteSpace=wrap;html=1;" vertex="1" parent="1">
          <mxGeometry x="70" y="60" width="420" height="100" as="geometry" />
        </mxCell>
        <mxCell id="rQr_zQE67p7i65nkuha4-10" value="&lt;font style=&quot;font-size: 30px;&quot;&gt;&lt;b&gt;Footer&lt;/b&gt;&lt;/font&gt;" style="rounded=0;whiteSpace=wrap;html=1;" vertex="1" parent="1">
          <mxGeometry x="60" y="580" width="440" height="70" as="geometry" />
        </mxCell>
        <mxCell id="rQr_zQE67p7i65nkuha4-11" value="&lt;span style=&quot;font-size: 30px;&quot;&gt;&lt;b&gt;View&lt;/b&gt;&lt;/span&gt;" style="rounded=0;whiteSpace=wrap;html=1;" vertex="1" parent="1">
          <mxGeometry x="70" y="170" width="420" height="400" as="geometry" />
        </mxCell>
        <mxCell id="rQr_zQE67p7i65nkuha4-20" value="" style="curved=1;endArrow=classic;html=1;rounded=0;fontSize=30;exitX=1;exitY=0.467;exitDx=0;exitDy=0;exitPerimeter=0;" edge="1" parent="1" source="rQr_zQE67p7i65nkuha4-5">
          <mxGeometry width="50" height="50" relative="1" as="geometry">
            <mxPoint x="520" y="320" as="sourcePoint" />
            <mxPoint x="630" y="170" as="targetPoint" />
            <Array as="points">
              <mxPoint x="570" y="320" />
              <mxPoint x="520" y="160" />
            </Array>
          </mxGeometry>
        </mxCell>
        <mxCell id="rQr_zQE67p7i65nkuha4-21" value="Index.vue" style="rounded=0;whiteSpace=wrap;html=1;fontSize=30;" vertex="1" parent="1">
          <mxGeometry x="630" y="140" width="170" height="70" as="geometry" />
        </mxCell>
        <mxCell id="rQr_zQE67p7i65nkuha4-23" value="&lt;span style=&quot;color: rgba(0, 0, 0, 0); font-family: monospace; font-size: 0px; text-align: start;&quot;&gt;%3CmxGraphModel%3E%3Croot%3E%3CmxCell%20id%3D%220%22%2F%3E%3CmxCell%20id%3D%221%22%20parent%3D%220%22%2F%3E%3CmxCell%20id%3D%222%22%20value%3D%22%22%20style%3D%22shape%3Dimage%3BverticalLabelPosition%3Dbottom%3BlabelBackgroundColor%3Ddefault%3BverticalAlign%3Dtop%3Baspect%3Dfixed%3BimageAspect%3D0%3Bimage%3Ddata%3Aimage%2Fpng%2CiVBORw0KGgoAAAANSUhEUgAAAWkAAAFJCAYAAABZ19x4AAAgAElEQVR4nO3dsXKyTBvG8ctv3kPRp8jkCPAINE2qtOmw1CadZbo0WIYurZVN9Aj0CDIpAufCV4DKAgIaI4v%2BfzOZeV9dYYE8dzYL2asTRVEkAICV%2Ftd0BwAAh1GkAcBiFGkAsBhFGgAsRpEGAItRpAHAYhRpALAYRRoALEaRBgCLVRbpcNZXfxZeoi%2BN7C9rNeqoM1o1tn8ASGMkDQAWo0gDgMUo0q2y0qjTV4OzQQAujCINABajSFcKNet31Olsv0ba3lY8dJMxnPXN18OZ%2Bp30NjoyPxbvI7upcNZXpz9TuP3vzlC%2BNpr0sttYaXRw2wDajCJdIZy9SR%2BRoij%2BWrq%2BhkkVHDy6kr%2BQWRNXepts5D4Okv8dqdOb6H6530YUePoado56iqU7XiuKlnLlyAvi7bwP4v2NOkMptf3Hn7iwA2g%2FinSF7vhd4%2B7%2B%2F43CPHiR5%2FhapKv0aiHf8fQykKRQs1dfjhckBXW3Ua2XrjaTN%2F160Bv%2B6EuO7nqpPo7H6h7%2BBIAWsbJIbyY9Y2rgvF%2BjowtjPNWQfH7op97p6uHJkf%2B6H7muFr6cp4e4SIafmm8cPT0UlMzenRx96ee3Q97uWFM3mQLpM4IGro2VRdrxgv3UwNm%2F3jWo7kIinuvtfU%2F3n1%2B6Rovuw5OczVyfYdx%2B4buaji87jh28R4qiQJ4m6nX4YxzgmlhZpK2xWsiXq2VqriL8%2BTLbJCPZ%2BWeocPYq333c%2FxDoPujJid%2FLCb61cZ6UHmR%2FZYbVwffmiM52NV7H892O%2F8pjesCVoEiXyU5JhDM9T%2FKFc%2FDoajN%2F09tc8l6MyWeNp642k575xEU4U3%2Foy51u547jaRNjjno1kjGzsrPRd2Bua0RFBq4WRbpMd6wPT7tH3jrP0kdmukNSfANRvnyZI%2BP4vffd0xy7ee3eXE9BZNxM7I4%2F5Dm%2Bhts2i0cFnpPdmF48R%2F4w9ahdd6wXPWe2vdaFZ1wA%2FJFOFEVRWYNw1tezPrS%2B0L%2F6S%2B%2FvPELN%2Bj3Nn4KW9RuA7f5rugNXIfzUfONquqZAAzgvivSvhZo9TyQvOOKpEQCop3K6A4etRp345p67VPROiQZwfhRpALAYT3cAgMUo0gBgMYo0AFjs5oNomw6%2B%2FUur0XHLoQKwDyNpALAYRRoALEaRvgoE1ALXiiINABajSDfucNDt7wNqU%2B1%2FkUwDoDkU6YaVBd3WcTigNjF%2F1rM%2Bku0H8XKoJLcArUGRblhp0O0ZbO6nqeVT43ABff2QhQi0BEVazQffHg66%2FT0nHSMuqfvvXtp8KzjQHoBdKNJqMvi2OugWwG2jSDepTtCtfhtQC6DNKNJNqgy6%2FUVALYCrQJFuUo2g25MDagFcBeKzGtYdrxWNzdfMGIauxutIZpNB7jNF2xm8R%2Fn58MG7iHkA2oORNABYjCINABYj4xAALMZIGgAsRpEGAItRpAHAYhRpALAYQbRXvj8A7cZI%2BpatRhf9C0UzfCD%2B4gcWUI4ifcNWC1%2BO48hfXPDvyN3lfsW%2FwJMmPf6MHShBkb5V4Uyvvqvpx5Mc%2F7WZENvuWFNXl%2F0hAbQMRfpGhZ9zbdxHDbpjTd2N5p%2FNTTtkgwkA7FGkb1Koz%2FlG7mO8%2FNLg0dVm%2FpmL1ApnfXVGKymcqZ%2BeS87MT9Rtl7Maaei7mqbzw0qDeVMhvMl8etE%2BVqPi1%2FcBvtUBv6kXzWPKvg%2F8MYr0LVq9abJx9bhdIm%2FwKHcz0VtRTf16Vf9Z%2BtglzSzl%2BsN8Eazbzh%2BmosK%2B5AVmck2tYN7NRL3FY9zmPZ97U5wTudLbZCN3OlY394kDViN1enM9Ban%2B3E%2FUo1DjgijSN2i18CX3MVUcB3o8NDe8udd0nS5sA70vC4pg3XbpG4fRh%2FRsjnrrBfOaaTY5gxd5jq%2FX9ET7aiHf8fRS8jFTqNmrL3e5NvvzvpS7mavB2SHcGIp0A5oNvl1p4csc0XY6cdpLUUq5UcwTg0e56USZY9oZuhp%2FeHIy%2B60M5nXuVD6LnSTapKZwVgtfztND%2FVF0%2BKn5Rrsghf3XUOeNCgbKUaQb0FzwrRTOXuUbo1lzauG1zmMe4Y%2FySYwntuv%2B0%2F2ukJ8vmLc7nu5HvNsnWca1S3TCkRcUnWNzdA38JYr0TTFvGGYV3kD8%2BsnPvwbf2uhe%2F7ontMt16Udf2zY1g3nrGegxeWpl9yRLpkVpwG%2F3QU9Os0%2B9ABJF%2BraEn5pvHB184q3oBuJmol76xl04U3%2Foy11mRux125kd0ux5si%2BglcG8Jdvp55%2B8iH%2FovOltLnnGZHSdgN9tm%2Bwf26w04q9vcEEU6Ruyepto4zzp4eDItuAGortUcPe6n5PtTXS%2FjJS7b1e3nTEX3tP8Kdg%2FoVEjmPcogxd58uXfT3PTE3UCfrvjtaKlm5mXXuix7KYlcGYE0d6QwXukqhieojZFIbdFqtrV2U5VMG%2FxNorCesteP%2FRePuA3Du59L%2B808IcYSQOAxSjSAGCxyumO7nit9SV6wv4AIIe0cACwGNMdAGAxijQAWIwiDQAWI4j2yvf3l1YjMgqBv8ZI%2BsbsFugH0AoUaQCwGEUaACxGkQYAi1Gkb9z25p%2BRhlKU4bcNfk2%2BDt4wLAlujfeRTo5JlhglTBY4iCINaf6sZ30kqSOBPGXWhl6NktDYfTrJh56VS7aqCG7tjtdmsOzqTRN5CgiTBQ6iSEOb%2B6nWuwWXuxpP3VTSShzI6ngfxprM8XrM6a3UC24dvHhy%2FFfNwqT9oYJLmCwgiSLdiGaDaPOcoqiWzbcCaZfm8pRLCujq333qf%2BsGt%2B4W9u9pcr%2FMhwKktk%2BYLECRvrjueP2HIbTVQbR%2F67zBrYTJAhRpVOn%2B0702%2Bg6yb4QyMmLrBreGMz1P7rUMttMeZY0JkwUo0qgw0IvnyB%2F2jYK6Gj1rbrSrE9waB8%2FKe9FgO%2B3xPNvPfRMmC%2BSQcYhK3fFagfrq9TqaJK%2B5y0hTdfSaaRf9G6kz7KTmfF0tk4zA1ainycbVct1N2k%2FlTobqjf4pej8QYT54kfcaz19HRWGy856GHX%2FbKQXel3rzdJvyPgG2q1z0P5z19ayP1N3%2Fv3Xt%2BwOAYzDdAQAWo0gDgMXIOAQAizGSBgCLUaQBwGIUaQCwGEUaACxGEG3DwbBkDgIow0gaACxGkQYAi1GkAcBiFGkAsBhF2hbZsNTczcRkKc%2BDCSwrjVKfz3%2BcMFagjSjSNvh6Vf9Z%2Btilhizl%2BkOjUIezN%2BkjFaaaDnTVSqPOUFru33%2F8SRVhwliB1qJI22Bzr%2Bk6Hcg60PvSTMvujt%2FNMNV0mnb4oy85SkcVDsbb7RHGCrQZRVoWBMMWxEJp8ChXX0qnQ4Wz%2Fn676QiS7lhTd6NJr2AagzBWoNUo0pIcL7AvGDb80T5CMJ5v7n1P99tdukbzwXukKArkaaJebk6bMFagrSjSNvj6yc8NB9%2Fa6F7%2FupJWC%2FlytXzfl%2FvQSIHd6mq8jhSlQ14JYwVajSJtg81EvfTIN5ypP%2FTlLpNReO9OTnrqI5zpebIx2o8O%2Fmk7YaxAm1GkbeAuFdy97ueLexPdLyPtBs7bZO1e8v6z9JGe7uiO9aLn1Ofnegr2Uxnd8VrR0s3MSy%2F0%2BH7SRAyACyItvGHd8VpxNM5A0biiXeb9dKZO0fuGwbsiErKB1mEkDQAWo0gDgMUIogUAizGSBgCLUaQBwGIUaQCwGEUaACxGEO2V769pBO0Cv8NIGgAsRpEGAItRpAHAYhRpALAYRfrmlAfa7m70VQTj1m2X%2BsCvgnbDWT9OnVmNMp%2BvCOAFWo4ifWPKA20TNYJxz92uVr82E%2FUWj3Gb94EqA3iBK0CRvjGlgbZbNYJxz92uVr8y6TTlAbzAdaBIN6Dp4NuDgbZbNYNxz92usl%2FOnXrp%2Fy8L4AWuBEW6Ac0F31YH2h5kBOOeu93p%2FSoP4AXajyJ9S%2BoG2lYF4567Xe2g3UMKAniBK0GRviVVgbZbVcG4525Xt19ZpQG8wHWgSN%2BSqkDbrapg3HO3q9uvguMpC%2BAFrgFBtDemKtC2rF3d7eXel%2FRXQbt1%2Bwm0FSNpALAYRRoALFY53dEdr7W%2BRE%2FYHwDkkBYOABZjugMALEaRBgCLUaQBwGIE0bI%2FABZjJI2%2FtRq1foU6Y3W%2B5KvRH3xJ8MGl1pKy7vhvDEUaqMNd7lfoCzxp0mssBWa18OU4jvzFBTtg0fHfGoo0sLPSqNOvXkWvO9bU1WWL5FY406vvavrx1NyKf00e%2Fw2iSAMncu561Y3OLPyca%2BM%2BapAEHsw%2Fm5t2aOL4bxFFGg07HEC7GhUv4r8Lwd2%2FYIbc5uZr431kN7ULt93%2Bd2coX5vdanwHf51fjTT0XU2N5fbKg3QrA3Ozx1A4jx%2Fqc76R%2BxgvHzh4dLWZf%2Bba%2FVmY8C%2BO%2F3CQcHqzJde7P1NY4zqmXqxxPtuBIo1GlQXQFuccrvQ22RcqrUa7pU%2FTc6Zfw%2BNubnXH6zggV468IN6OseSqP0xFe33JC8w1s8uDdCsCc1ejZJnV1OfvJ%2BplC8vqTZONq%2B2ha%2FAodzPRW1FNPXeY8K%2BOP5ELEjaVXu%2FpEdmVdc9nS1Ck0ajSANrBizzHlzH1uVrIdzy9DCQp1OzVl%2BMFZkHtjrVeutpM3irzHmtL3ziLPqRnc9RXehylgbnxMbhLcx3swftS7mau9GzGauFn8iIHejw0N3zuMOHfHP9%2BI2aQcFZyvV9nxkGnrncd9c9nW1Ckb0DTwbdVDgfQdvXw5Mh%2F3Y%2BAVgtfztNDXFTCT803jp4eCsZY2bSXs%2Bpq%2FOHJyRShg8dRFpgbfmq%2Bkfxh9rwOZUbxrrTwZY5oOx0NfRUUQ50%2FTPg3x7%2BVDRIu2O7Dk2NM4RjXu47a57M9KNI3oLng2yrVAbTdhyc5uxHQSovcXGhDuv90vytk1cdRHpi7n2Ixv%2FajwXD2Kt8YzZpTC691pnbOGSZ85PHX1R1P9yPe7ZMsR1%2Fv6vPZJhRpNKdOAG3qKYa4UKVGft0HPTkHnnAIvrVxnpQeZH9lhobBd40cxUPCH30dHaRbEJhbdgz7rRk3DLMKbyCeO0w416VTjr%2BOgR6313v7JEumRel1rHU%2B24UijebUDKCNi9Cb3uaSZ0xOdjWeutpk%2F7BiG3S7u9mU%2FBqdnqNejVT0G7m00XdQ1fFQs%2BfJvoBUHUdpYO62b9k%2FDllptH0hmdY5%2BMRb0Q3Ec4cJG448%2FrLt9PNTQGXXu%2Fo61jifbRNVCDwncrygqtnZsL927y9n6UaS8l%2Fucte%2F3WuOFwVLN5LcaGlsJIg8J3m%2FaB%2BBFznG9p0of8jJNlL7Dzwnt810f5Iumn1MvrLntOo4zG0U9C93nvafXbolx55ukz6n2%2BNLbdM1T%2Bpx7c5x%2FLljOHRdk9ezHUm%2FV3Edy85n21Ck2V8LxP8w238cl7Etvudqh2aRFg77hZ%2Bab1xN1y286wP8EkUalovnP%2BUFv3iKBGgvMg5hrdUoeQ7YXRb%2BhRqKhbN%2B%2FDhcxTmr2w7NokgDgMV4BA8ALEaRBgCLUaQBwGIE0bI%2FABZjJI2%2FdQVBtNvg18ofdnXbGR%2Bpsch%2BjX0SSnu9KNJATeXrU8frGF8aobTXjyIN7JQE0TqOHGUCCNKSRZAc57g9Dt6LU0pqIZT2JlCkgVqe9OTKCCBIW71NtHGf9HTBHhFKexso0mhYe4JoH168VACBsSG9%2BpL7%2BHDU8RUd42oUz%2FEac7%2BE0uY%2Fe0OhtBRpNKo1QbRxozgGK5P8Gn7OtTmQw1croDVr%2FqxnfSSfSdJcsp8hlLaeKwilpUijUa0Joi3qX9yh0sJRL6DVtLmfar37UBxskE1QIZS2jusIpaVI3wCCaM8oUzzC2Wtl4agMaM0onN%2FdfGsfGEMobS1XEkpLkb4BBNGeUxLZNf9UuJ0XPvjr9%2FkCWtMIpT1G%2B0NpKdJoTluDaLfzv6PMvHDWWQNad1sglNbo8vWH0lKk0ZzWBtEO9OI58n1fjvdy%2BDeJkwNaSxBKm7idUFqKNP7eZqJedi57tJK6Y3142j3y1nmWPop%2BNR68yJMvX%2BbIOH7vffc0x27byd389H2p7vhDnuNruG2zeFTgZf%2FyJCm%2Bw%2BJH8NK646lcVfz6Xff4jrB6m%2BR%2BQzAV3EB0lwruXlPnJ34aJnffrm47Yy68p%2FlTsH9C49zHvL3299Pc9ESda9odrxUt3cy89EKPbQo6qApBvPbgVPbXBgTRnopQ2vYj4xD2I4gWN4wiDcsRRIvbRsYhrEUQ7e8RStt%2BFGkAsBhPdwCAxSjSAGAxijQAWIwgWvaHltuuQY3rxEgaf%2BsagmilgmCB36%2F%2B1xjCa1uFIg1UCGd9dXrfmqZXUQvutGhpoSG8tl0o0sBOURBtsupcdpGh7ljvbVnrMo3w2tahSAOlAp26oqmNCK9tH4o0GmZ7EG2yqtwwO8IuOpSqwNNfBLRmtl00p2vO%2FRbNmRNe28bwWoo0GtWGINrBe6SlmxTvQ%2F9YawSenhzQWnCMH%2Fo0z0s2vNYp2DbhtfXYFl5btUzetS%2Btyf7%2B2NKN5HhR7R4s3Uhyo3jRzHiJUmMFTWN7JUuYVm0nSpbnNPq2jFw50eHTtYxcKZKy%2ByzefuX2jD4m%2FUn9f3rbZddw6Sq3zGj%2B2IrbHfxsrh91%2B3ugnbGP%2BJhKl0atuy%2Bz5%2FlzVfD9Uv59cOK1%2FEOMpG8AQbTnMtB76umE3WjxiMDT4wNaA30fOkbjY%2Banuv%2FuCa%2FVdYTXUqSvXPxr%2FF%2BF0N5iEK2k7ljrZfZX66rA0xMDWusGxlZthvDaI9gVXkuRRnPaGkQrJSP1Gv3YOjWgtftP9%2FrtUxiE16a1LbyWIo3mtCKIdqVR0VMa6fDVOoGnJwe0xrmLm8mz8XRJOJvVn2YivDbR0vDaqknra7%2FRde37a9zSjZTcbDO%2Bkjsz8Q2h5DXHi4LMDaNYcqPp0A3IwIscY%2FtFN3iSbaT2X3RzLd0fd3lo%2B2U3K9PtzOOoOtai%2Fhzadnr%2FS7egP6ltL92Sc5fahnFNtucntc%2FCG25121Wcv9POzaHvi7Ibk%2FW%2BD6qu5SVRpK98f9eBINpLIrzWLmQcwn4E0eKGUaRhOYJocdsqi3R3vNb6Ej1hf8gwgmibfuwOaAhBtABgMR7BAwCLUaQBwGIUaQCwGEG0V76%2FYvFaCZfMuQNwGh7BuzmhZv2hvryAJyaAFmC64%2BbUW%2FoSgB0o0rfmTEtflisKdAVwCoo0AFiMIn1Dwllfnd5Em13YaipVpTLMtV67w4GuBz6fWWbycODo%2FmYnNzxxSyjSN6Q7XisKPDm75Ilkzd%2B6Ya412pUFutYO%2BMwFjq406gyl1H4ff5pLbwYuiSJ980LNXn05XiAjgDmJiNovkF63Xfl%2B3KUZQTR4X%2B7jjnbMlI54Ht1ctH4wPiL9GWgxinQDrAqGrRvm%2BtvQ12MCPrOBo0mE1qSXnx4Brh1FugGOF1gaDPvXTg%2F4HLxHiqJAnibqGXPVwHWjSN%2B6umGuR4a%2BHrWf%2Bp3VeB3Pgzv%2BK4%2F44SZQpG9e%2FTDXeu22soGuvwj4DGcaUZFxo%2FizcEiDd0XBnfq9jjq7F%2BOpCWMaom67JOG6N%2BwoXrM%2FfsKjO14r%2BjdSJ3k95moZvZf3rzvWi%2FrqdLYJ0o68oHqKBLgGFOlb0x1rHY3rv35iu%2B54rcJmg3dFJUX50OcObg%2B4ckx3AIDFKNIAYDEyDgHAYoykAcBiFGkAsBhFGgAsRpEGAIsRRMv%2BAFiMkTT%2B1mrU%2BpXr4iADc%2FW%2BS%2F%2FgK%2BoD4Qe3gSIN1OEujaAD5dYguQDHU5BZQfDd3iUPcSYUaWCnZoBud6ypK%2FmLax7GEiZsC4o0cCLnrlfdCPglijQaFmrWL06WWY2KF%2FcPZ33z9coQ3Xgf2U3tQm9VI0A3bTXS0Hc1NZbhO3wcyYfKg3QrAnprsT5MOHU2yq5tf6awxjWr25%2B2o0ijUeHsTfpIBdO6vobJv8zBoyv5i1yxe5ts5D4mk7F1Q3QrlAboSpI%2F3BeB4Ze8wEzAKTuOyiDdYwJ6D0WlWR8mbCq9trm1yUvU7U%2BLUaTRqO743QymTf%2FjHbzIc3wZU7%2BrhXzH08tA%2Bn047hHSNw6jD%2BnZHAmWHkdpkO4RAb25G4fbHxQtCBPOSq7tq%2FEDJH1t6zimP%2B1Fkb4BVgXfFjAeLxumY2njNBf%2FdT8qWi18OU8PcYH7bTjuyboaf3hyMiPBg8dRFqR7TEDvIW0IE85Jknrmn8XXto5znLsWoEhfufhX178Kvf1t8G08T9v7nu63t3TN%2Fj88ydmNilZa5OaCG9L9p%2FtdUas%2BjvIg3dMDei%2FvfH3tjqf7EW840%2BtJ17ZN5%2B40FGk0Z7WQn%2Fm1OPz5Mtsko9D5Z6hw9irffdz%2FUDgyHPcrM0wMvjc6WfijL93rX7fmccQdzgfpniOgt1VhwmkDPW6v7edcm%2FS1TZRes7P3x04UaTQn%2Byt2ONPzJF84B4%2BuNvM3vc0lz5iwrB%2BiG4fgvhk32oaFvxNnA3SLhJo9T%2FZFpeo4SoN0fxHQm9qG9WHC26dfMtM9Zde2%2Bpqd49y1QFQh8JzI8YKqZmfD%2Fq7M0o0k5b%2FcZRRF8fnYveZ4UbB0I8mNlsZGgshzkveL9hF4kWNs34nypzjZRmr%2FgefktpnuT9JFs4%2FJV%2FYaVh2HuY2C%2FuXOk3kOivp62nmo367oXJze10PXMHndNa%2B48V7FNavqT9tVJrOEs76e9aH1hSZ42B%2FyQs36Pc2fAs4bbg5p4bBf%2BKn5xtV0TYHG7aFIw3Lx%2FK%2B84BdPkQDtRRAtrLUadeIbRe6y8K%2FWgFtAkQYAi%2FEIHgBYjCINABajSAOAxQiivfL9AWg3RtIwHFqMHUAzKNIAYDH%2BmAWGwXsknskE7MFIGgAsRpG%2BIdXhnwfalAR9FrUvCgs1w2MrQlkB7FCkb8hJ4Z8VQZ%2F5bYb6nG8kI2Mufi0Oj60IZQVgoEjfkqPDP2sEfQ4e5RoL3sc5ek46MSNZxe5xoIpQVgBZFOkGNBcMe2T4Z62gz30EUvyRuTbuVB9PjjbbWI%2Fge59iUhbKCiCHIn1hTQfDHh%2F%2BWR30GUcgfSpUqM8kBqn78LRL014t%2FGSqI2lfGsoKII0ifXOqwz936gZ9Dh7jwr%2F61Fzp0FNfi1Wc8P2Y20lBKCuAHIr0DToc%2FplVN%2BgzKfyvc2k3dRJ%2F9mux0Ff6B0FpKCuALIr0LRq8yJMv%2F36qqsjA7nitaOlm5qUXeswswt%2B7c7TZSE8P%2Bw12H54k35dxl7A71oue99vqzfUUrCv7Adwq%2FuLwJsVTDeOCdwr%2F4nDwrih6L9%2FieK0ou8HuWOvciwfaAijESBoALEaRBgCLkXEIABZjJA0AFqNIA4DFKNIAYDGKNABYjCDalgbDtrXfAI7DSBqnWY1av4pdOOvnVhG83A%2B%2BULN%2Bxf5Wo92qhgQE3y6KNG6bu9yv7Bd4Um6dkr%2BSXzY2a7XwpbIFsHATKNK4ASuNOv3qlfa6Y01dyV9cZsTafXiSYyTYpK208J3dAliD90jRO%2BX6FlGkgQwnvSDUX0qWgp28FfxQWC3kO8myr7hpFGn8kXjOtSgxpjQQN%2F16NgA3F1ob7yOfm7sPwo3nnYfylaTBlAXfrkYa5kIQDh9H8qHyUN2SEF%2Bpq%2FG0KHcyn5hzmYDg9KmoCi2uPvf1zgGqUKTxJ8LZm%2FSRCq91fQ2Tf9GlgbjbdIDVSJ3eRPepwNoo8PQ1PO7mXpyEs5SbSpgxZg384b54DL%2FkBWayTdlxVIbqVoT4JidDrnwtMut1L3zHWPY15%2BwBwaaTQotP6CeqUaTxJ7rjdzO8Nv2PPgnENQqTEYgbB%2BA6XmAW1O5Y66WrzeStJMfxSOkbh9GH9GyOIEuPozRUt0aIb%2FyKHrPz4JVTHX8QEJx1dGjxif1EJYp0izUXaFuP8Yjb0E%2B9Ez%2FZ4L%2FOigNxk4JSOJLs3clJF5%2Bz6mr84e2yGSuPoyxUt1aIb8wctSaFrWy0%2BhcBwQXn4qjQ4pP7iSoU6RZzvKCxQNty8Txt73u6397SNVqYTzbEOYjlgbgX0v2n%2B90PgerjKA%2FVrQ7xjTeSmvIoG90azh8QnDsVR4cWn9ZPlKNI4%2FxWC%2FlytUzNVYQ%2FX2abZBQ6%2FwwVzl7lp0d0ZQG4wbc2mamAr8ywOvjenN738Edfute%2Fbs3jiDucD9WtG%2BIrSRroxXPkL1bV4cA6YtsnBQSb%2FaoKLS4990edAxxCkcb5ZackwpmeJ%2FnCeTgQN37qIReAG87UH6anArZBuak56tVIw8LfpTfa%2FpZ%2FWKjZ82RfjKqOozRUt26Ib9L64UmO%2F6rnAzfyTtv2EQHB26dYMtM2Zdeo%2Btwfdw5wQFQh8JzI8YKqZmdz7fs7l8b7vXQjSfkvd7nr3%2B41x4uCpRtJbrQ0NhJEnpO8X7SPwIscY%2FtOlD%2FkZBup%2FQeek9tmuj9JF80%2BJl%2FZc1p1HOY2CvqXO0%2FZc5A9juL3l%2B7%2B3B6z7bh%2FmX4l59U81kPXInk9u2%2Bjz%2BXnvv45QJHKZJZw1tezPrS%2B0ATSte%2FvXNrab1OoWb%2Bn%2BVPQ8uMA%2Fg5p4WhOcpNsuqZAA4dQpNGQeP5XXsACQkAJgmhxcatRJ77B5C5ZNAioQJEGAIvxCB4AWIwiDQAWo0gDgMUIom1poGtb%2Bw1Tdt1msgyRxUgap7mCIFpJBcECv1%2F971yKgnL%2FNjSXcFwbUaRxs8JZX53et6bp1dmCOy0s%2BQ0lDizYBx44mRXlzv9XmoTj2ogijRtQFESbpJIsM0uydsd6v%2BE%2FUScc1z4UadyoQL9Z0fRqEY5rHYo0%2FojtQbRJbNUwO8IuOhSzH%2Bk5292%2BVqP4%2FaP6f0Y19rU7v9m2RkPCcW1DkcafaEMQ7eA90vJQ%2FNWuW%2Fl%2BfOjT7Ptmot7iMX7%2F%2Fbz9r%2BWYfX29qv8sfezm4Zdy%2FaFZ%2FAjHtUvVWqbXvr5z4%2Bsyn6jxfi%2Fdw%2BtAH2q%2FW0c4XofYWKLY2F78fuHxVW0nigrWNF5GbuFa1On3i%2FxCk6IAAARVSURBVNaTLulHel8H1smu7n9%2BnejCdaPjHUVOyXradfZV3Nd8u8J%2BFFxvs03xtTDPfeY6JMfkpPsfeJFTsea2cawF3zfl3w91%2BmkXRtItRhDtuQz0now%2BNemlRpWBvg%2F1I825Uy%2F9%2F5fs%2F7H7KnoyI5ssLsJxbUKRbjGCaM%2BsO9Z6mSpO4Y%2BKEg2vTtFxEo5rDYo0zq%2FNQbS9Ozm7fvzTvU4IUj2y%2F79y7L6%2BfvLzrsG3Ntvw3R3Cca1RNR9y7XPEjc%2FtnqjxfpfNSWfnT3dZhZm5xqUbyXEj1zmcDWjMHSbbSb%2BWm2fd5unl5qSz85DLyK2R51eUERh4njnPW3Qeavb%2F93PS9fe1y2M0X8y1y%2B7TKZzDzfd1u%2F3cec58eOkqchzz%2BzfwnMhx3cgxD6I4d7Hk%2B6bO90PdftqCIt10sTtR4%2F2%2BgiDa%2FPbLbsAVtzlYpGv2%2FyxFuua%2BAs%2FZn59U28O1iXBcGxBE29JA17b220QQ7SWFs358n4C%2FEmwVMg7RHIJogUoUaTSEIFqgDjIOcXEE0TaD6Y52okgDgMV4ThoALEaRBgCLUaQBwGIE0bY00LWt%2FUZ9q9Ff5Bj%2Bvbb221aMpHEagmgbtxodWgc7XuCqKGDgsuGxBNueA0UaN8v2INoqg0dX2nwryL6xWsiX5C9y2SqKc2Qv9QgewbbnQJHGDbjSINrCBJV4xUHHcfIr3oU%2F%2BpKju54uhmDb36NI40ZdQxBtT3dOdmnO%2BIfP%2FVNBcTz3Mql1EGz7axRp%2FJHrDaLNzwMfPlajPzXCaovmb42EG2PbBdMJ2wX6x3Fx%2FE7NhawWvnT%2Fz0wxqRtge6j%2F29cO9p9g29%2BiSONPXFcQbXloadmx7tQMq82F3M6f9ayP5P1AnmNuO55OSM1LB9%2FaOHfqqat%2F9%2Bl56VA%2FX5n56GPO8aH%2BD7%2BMlJMPPWuYzaEi2PZ3qtYyvfb1nRtfl%2FlEjff7hoJojw4trRUAWx1yW7Rec%2FGx7fu4dFPbTJ%2FTXMDrbwNsD32%2B%2BHWCbU%2FHSLrFCKI9lwNBtEeElh4%2B1kQ2rLZmyK2TucvX%2FXefeaIjnraJ56Xj0fL9v12g4D4PcDfC3nb4yHNcO2w3HsFnEWx7Oop0S8W%2Fxv9VCC1BtPsfUFWhpdXHWuiMIbe7cNdcYGxPd8m89NHF59wItj0ZRRrndzVBtDVCS%2Bsca5FTQ26L9O7ieencqDEeKX79rMwRtvT7sNyk%2F9%2B5h7Tj0XwewbYnq5oPufY54sbndtvqpoJoS0JLaxzroRzEqpBbY37ZOL6i%2BeHMXGy6veMUz8sec45r9n%2FpHujHbtsE2x6LIk2RPs0NB9Fmj6PqWEvDaktCbusX6QPhrvEH4puivzjHZf0vCrUt7HfcmmDbExBEexWBrm1FEC1QhYxDNIcgWqASRRoNIYgWqIOMQ1wcQbRAfRRpALAYz0kDgMUo0gBgMYo0AFiMIg0AFqNIA4DFKNIAYDGKNABY7P8bGTxElREa1QAAAABJRU5ErkJggg%3D%3D%3B%22%20vertex%3D%221%22%20parent%3D%221%22%3E%3CmxGeometry%20x%3D%22650%22%20y%3D%22321%22%20width%3D%22361%22%20height%3D%22329%22%20as%3D%22geometry%22%2F%3E%3C%2FmxCell%3E%3C%2Froot%3E%3C%2FmxGraphModel%3E&lt;/span&gt;" style="rounded=0;whiteSpace=wrap;html=1;fontSize=30;" vertex="1" parent="1">
          <mxGeometry x="840" y="40" width="390" height="730" as="geometry" />
        </mxCell>
        <mxCell id="rQr_zQE67p7i65nkuha4-26" value="" style="shape=image;verticalLabelPosition=bottom;labelBackgroundColor=default;verticalAlign=top;aspect=fixed;imageAspect=0;image=data:image/png,iVBORw0KGgoAAAANSUhEUgAAAWkAAALBCAYAAACa3FBQAAAgAElEQVR4nO3dO3LqyhqG4Y9TeyjCwSpGIEYAToickokQEmeEZE5EiDJSIhKjEaARuBxYmgsnkADdQMLm0sD7VLlqL2ikBq/9u9cvub/GZrPZCABgpP/degIAgMMo0gBgMIo0ABiMIg0ABqNIA4DBKot0NG2rPY2uMZebnC/PHzTUGPg3Oz8ApLGSBgCDUaQBwGAU6bvia9Bo64bdIABXRpEGAINRpCtFmrYbajS2XwNtLyseusgYTdvZx6Op2o30MRrKviw+R/5Q0bStRnuqaPvfja48BRo188fwNTh4bAD3jCJdIZp+SPONNpv4a+V46iZVsNNzJG+pbE309TEK5PQ6yR8HajRHaq32x9iErr66jZPuYrGGa202Kzmy5YbxcWad+HyDRldKHb/3Exd2APePIl3BGs40tPZ/zhTmzrtc29MyXaX9pTzb1XtHkiJNJ55sN0wK6u6gWq8cBaMP/XnRG/3oS7b+NVNzHA5lHX4FgDtiZJEORs1Ma+C8X4OTC2Pcakhe3/VSz1h6fbPlTfYrV3/pyX57jYtk9KlFYOvttaRkNv/J1pd+/rrktYYaO0kLpM0KGng0RhZp2w33rYGzf83UqZ5CIu71Nr/H+9evnMwI6/VNdrDQZxSPX3qOxsPrrmM7s402m1CuRmo2+GUc4JEYWaSN4S/lydEq1auIfr6yY5KV7OIzUjSdyHN6+x8C1qve7Pi5gvBbgf2m9CL7K7esDr+DEyZrabiO+922N+E2PeBBUKSPybckoqn6o2Lh7PQcBYsPfSwk9z3TfNZw7CgYNbN3XERTtbuenPG2dxy3TTI9an+gTGdlJ9B3mD3WgIoMPCyK9DHWUHNXu1veGn1pnmt3SIovIMqTp+zKOH5utrubY9fXbi70Fm4yFxOt4Vyu7am7HbPsKXTt/MH07tryuqlb7ayh3tXPHXutK3dcAFxIoyo+K5q21ddc6yv9X3/t851HpGm7qcVbeGfzBmC6/249gYcQfWoROBqvKdAAzosi/WeRpv2R5IYn3DUCAPVUtjtwmD9oxBf3nJU2M0o0gPOjSAOAwbi7AwAMRpEGAINRpAHAYE8fRHvr4NtL8genbYcKwDyspAHAYBRpADAYRfohEFALPCqKNAAYjCJ9c4eDbv8eUJsa/4dkGgC3Q5G+sWNBt3UcDqhNLPrqa54cP4y3QyW5BbgbFOkbOxp0ewZBa5zaPjUOF9DXD1mIwJ2gSOv2wbeHg27/zk7HiEuyXlpS8K3wwHgAZqFI65bBt9VBtwCeG0X6luoE3eqvAbUA7hlF+pYqg27/EFAL4CFQpG+pRtDtrwNqATwE4rNuzBqutRlmH8vGMFgarjfKDukUXlN2nM5sU+yHd2Yi5gG4H6ykAcBgFGkAMBgZhwBgMFbSAGAwijQAGIwiDQAGo0gDgMEIon3w8wG4b6ykn5k/uOpvKGbDB+IvfmABx1Gkn5i/9GTbtrzlFX+P3Fntd/wLXWnU5NfYgSMo0s8qmmriORrP32R7k9uE2FpDjR1d94cEcGco0k8q+lwocHrqWEONnUCLz9u1HfLBBAD2KNJPKdLnIpDTi7df6vQcBYvPQqRWNG2rMfClaKp2upec60/UHVfgD9T1HI3T+WFHg3lTIbxJP73sHP6g/PF9gG91wG/qwex7yj8PXBhF+hn5HxoFjnrbLfI6PTnBSB9lNfVronZfmu+SZlZyvG6xCNYd53VTUWFfcsNsck2tYN5gpOayF4+ZFXNvynMifX2MAjnjoazCKw7wB2o0F3oLU/NpjdSkUOOKKNJPyF96ktNLFceOeod6w0FL43W6sHU0W5UUwbrj0hcON3Opn1311gvmzabZFHTe5dqeJulGu7+UZ7t6P/KyrEjTiSdntc7OZ7aSEyx0w+4QngxF+gZuG3zra+kpu6JtNOK0l7KU8kwxT3R6ctKJMqeMy7A0nLuyc+etDOa1/+l4FztJtEm1cPylJ/vttf4qOvrUItAuSGH/1dV5o4KB4yjSN3C74Fspmk7kZVaz2dbCpM5tHtGPikmMvxxnvai1K+TnC+a1huP9ind7J8uwdolO2HLDss84u7oGLoki/VSyFwzzSi8gfv0U+6/htwK19GL9YlxhSj/62o6pGcxbT0e95K6V3Z0suRFHA36tV73Zt73rBZAo0s8l+tQisHXwjreyC4jBSM30hbtoqnbXk7PKrdjrjstOSNP+aF9AK4N5jxynXbzzIv6h86GPheRmmtF1An63Y/K/bONrwG/f4Ioo0k/E/xgpsN/0enBlW3IB0Vkp/DfZ92SbI7VWGxWu29Udl+mFN7V4C/d3aNQI5j1J512uPHmtcaE9USfg1xqutVk5ub70Ur1jFy2BMyOI9ol0ZhtVxfCUjSkLuS1TNa7OcaqCecuPURbWe+zxQ88VA37j4N7Z8UkDF8RKGgAMRpEGAINVtjus4Vrra8yE8wFAAWnhAGAw2h0AYDCKNAAYjCINAAYjiPbBz3dJ/oCMQuDSWEk/md0G/QDuAkUaAAxGkQYAg1GkAcBgFOknt734l0lDKcvw2wa/Jl8HLxgeCW6Nz5FOjkm2GCVMFjiIIg1p0Vdf8yR1JJSr3N7Q/iAJjd2nk8zVVyHZqiK41Rqus8Gy/odGchUSJgscRJGGgtZY692Gy5aGYyeVtBIHstruPLMnc7wfc/oo9YJbO++ubG+iaZSMP1RwCZMFJFGkb+K2QbRFdllUS/CtUNqlubwVkgIsvbRSf6wb3Lrb2L+pUWtVDAVIHZ8wWYAifXXWcH3BENrqINrLOm9wK2GyAEUaVawXtRToO8w/ESmTEVs3uDWaqj9qaRVu2x7HBhMmC1CkUaGjd9eW121nCqo/6GuRGVcnuDUOnpX7rs627dGf7nvfhMkCBWQcopI1XCtUW81mQ6PkMWe10VgNTXLjNi8DNbqNVM/X0SrJCPQHTY0CR6u1lYwfyxl11Ry8aDM7EGHeeZc7ifvXm7Iw2UVT3Ya3nZRC90vNRXrM8TkBpqvc9D+attXXPHX1/7Ie/XwAcAraHQBgMIo0ABiMjEMAMBgraQAwGEUaAAxGkQYAg1GkAcBgBNHeOBiWzEEAx7CSBgCDUaQBwGAUaQAwGEUaAAxGkTZFPiy1cDEx2crzYAKLr0Hq9cWXE8YK3COKtAm+Jmr3pfkuNWQlx+tmCnU0/ZDmqTDVdKCrfA0aXWm1f773kyrChLECd4sibYKgpfE6Hcja0WyVTcu2hrNsmGo6TTv60ZdspaMKO8Pt8QhjBe4ZRVoGBMOWxEKp05OjL6XToaJpe3/cdASJNdTYCTRqlrQxCGMF7hpFWpLthuYFw0Y/2kcIxv3m5vd4f9yVkxnemW202YRyNVKz0NMmjBW4VxRpE3z9FHvD4bcCtfRiSfKX8uRoNduX+yiTArtlabjeaJMOeSWMFbhrFGkTBCM10yvfaKp215OzSlbhzX+y062PaKr+KMiMHxz81XbCWIF7RpE2gbNS+G+y7xc3R2qtNtotnLfJ2s3k+b40T7c7rKHe1U+9fqG3cN/KsIZrbVZOri+9VG/2q0YMgCsiLfzGrOFacTROR5thxbjc8+lMnbLnMzozbUjIBu4OK2kAMBhFGgAMRhAtABiMlTQAGIwiDQAGo0gDgMEo0gBgMIJoH/x8t0bQLvA3rKQBwGAUaQAwGEUaAAxGkQYAg1Gkn87xQNvdhb6KYNy641Iv+FPQbjRtx6kz/iD3+ooAXuDOUaSfzPFA20SNYNxzj6s1r2Ck5rIXj5l1VBnACzwAivSTORpou1UjGPfc42rNK5dOczyAF3gMFOkbuHXw7cFA262awbjnHlc5L/ufmuk/HwvgBR4ERfoGbhd8Wx1oe1AmGPfc434/r+MBvMD9o0g/k7qBtlXBuOceVzto95CSAF7gQVCkn0lVoO1WVTDuucfVnVfe0QBe4DFQpJ9JVaDtVlUw7rnH1Z1Xyfs5FsALPAKCaJ9MVaDtsXF1j1d4XtKlgnbrzhO4V6ykAcBgFGkAMFhlu8MarrW+xkw4HwAUkBYOAAaj3QEABqNIA4DBKNIAYDCCaDkfAIOxksZl+YO736Eusztf8nXTH3xJ8MG19pIy7v0/GYo0UIez2u/QF7rSqHmzFBh/6cm2bXnLK07AoPf/bCjSwI6vQaNdvYueNdTY0XWL5FY01cRzNJ6/3W7Hv1u+/ydEkQZ+yf7XrB50ZtHnQoHTUycJPFh83q7tcIv3/4wo0rixwwG0/qB8E/9dCO7+gWzIbaFfG58jf6hduO32vxtdeQp2u/Ed/Oe8P1DXczTObLd3PEi3MjA3/x5K+/iRPheBnF68fWCn5yhYfBbGXSxM+A/v/3CQcPqwR77f7amiGt/H1IM1Ps/7QJHGTR0LoC3POfT1MdoXKvmD3dan6Z7pV/e0i1vWcB0H5MqWG8bHyWy56nVT0V5fcsPsntnHg3QrAnP9QbLNaur1rZGa+cLif2gUONq+dXV6coKRPspq6rnDhP/0/hOFIOGso9/v8QnZlXU/zztBkcZNHQ2g7bzLtT1lWp/+Up7t6r0jSZGmE0+2G2YLqjXUeuUoGH1U5j3Wlr5wtplL/eyq7+j7OBqYG78HZ5XdB7szW8kJFkp3M/yll8uL7Kh3qDd87jDhv7z//UGyQcJ5yfd7Ms286dT3u476n+e9oEg/gVsH31Y5HEBr6fXNljfZr4D8pSf77TUuKtGnFoGtt9eSNVY+7eWsLA3nruxcETr4Po4F5kafWgSS181/rl1lo3h9LT1lV7SNhrqeSoqhzh8m/Jf3v5UPEi457uubnWnhZL7fddT+PO8HRfoJ3C74tkp1AK31+iZ7twLytSz0Qm/EelFrV8iq38fxwNx9iyX7tV8NRtOJvMxqNttamNRp7ZwzTPjE91+XNRzvV7zbO1lO/n5Xf573hCKN26kTQJu6iyEuVKmVn/WqN/vAHQ7htwL7TelF9lduaRh+18hRPCT60dfJQbolgbnH3sP+aJkLhnmlFxDPHSZcmNJv3n8dHfW23+/tnSy5EUe/j7U+z/tCkcbt1AygjYvQhz4WkptpTloajh0F+V+s2Abd7i42Jf+MTveo/YHK/kUuBfoOqyYeadof7QtI1fs4Gpi7nVv+l0N8DbYPJG2dg3e8lV1APHeYcMaJ7//YcdrFFtCx73f197HG53lvNhVC197Yblg17Gw4332fr2DlbCQVv5zVbn67x2x3E66cjeRsVpmDhBvXTp4vO0fobuzM8e1N8S0nx0idP3TtwjHT80mmmJ1j8pX/TKveR/YYJfMrfE77166cI+89PSb9mW7fX+qYTvZDPW3cOd5/4T0c+r4mj+cnkn6u4vt47PO8NxRpzncH4v8x7/99XMe2+J5rHG6LtHCYL/rUInA0Xt/hVR/gjyjSMFzc/5Qb/uEuEuB+kXEIY/mD5D5gZ1X6G2ooF03b8e1wFZ9Z3XG4LYo0ABiMW/AAwGAUaQAwGEUaAAxGEC3nA2AwVtK4rAcIot0Gv1b+sKs7LvOSGpvs1zgnobSPiyIN1HR8f+p4H+NrI5T28VGkgZ0jQbS2LVu5AIK0ZBMk2z7tjJ1ZeUpJLYTSPgWKNFDLm94cZQII0vyPkQLnTW9XnBGhtM+BIo0bu58g2td3NxVAkDmQJp7k9F5Pen9l79EfxD3eTO+XUNria58olJYijZu6myDaeFAcg5VLfo0+FwoO5PDVCmjNW/TV1zx5TZLmkn8NobT1PEAoLUUaN3U3QbRl84sndLRw1AtozQpaY613L4qDDfIJKoTS1vEYobQU6SdAEO0Z5YpHNJ1UFo7KgNac0v5u8K19YAyhtLU8SCgtRfoJEER7Tklk1+JT0bYvfPCf3+cLaE0jlPYU9x9KS5HG7dxrEO22/zvI9YXzzhrQujsCobSZKT9+KC1FGrdzt0G0Hb27tjzPk+2+H/6XxK8DWo8glDbxPKG0FGlcXjBSM9/LHviSNdTc1e6Wt0Zfmpf907jzLleePGVXxvFzs93dHLtjJ1fz09elrOFcru2pux2z7Cl08795khTfbvkteGnWcCxHFf/8rvv+TuB/jAr/QsgquYDorBT+m6Q+n/humMJ1u7rjMr3wphZv4f4OjXO/5+33vjUutCfqfE+t4VqblZPrSy/Vu6egg6oQxEcPTuV894Ag2t8ilPb+kXEI8xFEiydGkYbhCKLFcyPjEMYiiPbvCKW9fxRpADAYd3cAgMEo0gBgMIo0ABiMIFrOhzu33YMaj4mVNC7rEYJopZJggb/v/nczhNfeFYo0UCGattVofmuc3kUt/KflnRYawmvvC0Ua2CkLok12nctvMmQNNbuXvS7TCK+9OxRp4KhQv93R1ESE194fijRuzPQg2mRXuW5+hV32VqoCT/8Q0Jo7dllPN9v7LeuZE157j+G1FGnc1D0E0XZmG62cpHgf+p+1RuDprwNaS97jXJ/ZzyUfXmuXHJvw2npMC6+t2ibv0bfW5HwXtnI2st1N7RmsnI3kbOJNM+MtSjM7aGaOd2QL06rjbJLtOTNzW20c2ZvDH9dq40gbKX/O8uNXHi8zx2Q+qT+nj33se7hyVNhmtPjeyscdfG1hHnXne2Bc5hzxezq6NWrdc2VnXvysSv6+HP978Mvv5QWxkn4CBNGeS0ez1N0Ju9XiCYGnpwe0hvo+9B4zL8u+ynppEV6rxwivpUg/uPif8ZcKoX3GIFpJ1lDrVf6f1lWBp78MaK0bGFt1GMJrT2BWeC1FGrdzr0G0UrJSrzGPrd8GtFovaumvd2EQXpt2b+G1FGnczl0E0foalN2lkQ5frRN4+uuA1jh3MRj1M3eXRNNp/TYT4bWJOw2vrWpaP/qFrkc/382tnI2Si22Zr+TKTHxBKHnMdjdh7oJRLLnQdOgCZOhu7Mzxyy7wJMdInb/s4lp6Ps7q0PGPXaxMj8u+j6r3WjafQ8dOn3/llMwndeyVc+SzSx0j8z3Zfj6pc5ZecKs7ruLz+91nc+jvxbELk/X+HlR9L6+JIv3g53sMBNFeE+G1ZiHjEOYjiBZPjCINwxFEi+dWWaSt4Vrra8yE8yEnE0R769vugBshiBYADMYteABgMIo0ABiMIg0ABiOI9sHPVy7eK+GaOXcAfodb8J5OpGm7qy835I4J4A7Q7ng69ba+BGAGivSzOdPWl8eVBboC+A2KNAAYjCL9RKJpW43mSMEubDWVqlIZ5lpv3OFA1wOvz20zeThwdH+xkwueeCYU6SdiDdfahK7sXfJEsudv3TDXGuOOBbrWDvgsBI76GjS6Uuq8vZ/bpTcD10SRfnqRphNPthsqE8CcRETtN0ivO+74eZxVNoKoM1vt4452sikdcR89u2l9Z3hC+jNwxyjSN2BUMGzdMNe/hr6eEvCZDxxNIrRGzWJ7BHh0FOkbsN3Q0GDYS/t9wGdnttFmE8rVSM1Mrxp4bBTpZ1c3zPXE0NeTzlN/shqu4z647U24xQ9PgSL99OqHudYbt5UPdP1DwGc01YCKjCfFr4VD6sy0Cf+p3WyosXswbk1k2hB1xyUJ181uQ/Ge/fEdHtZwrc3LQI3k8Zij1WZ2fH7WUO9qq9HYJkjbcsPqFgnwCCjSz8Yaar0Z1n/8l+Os4VqlwzozbY4U5UOvO3g84MHR7gAAg1GkAcBgZBwCgMFYSQOAwSjSAGAwijQAGIwiDQAGI4iW8wEwGCtpXJY/uPud6+Igg+zufdf+wVc2B8IPngNFGqjDWWWCDlTYg+QKbFdhbgfBmblbHuJMKNLATs0AXWuosSN5y0dexhImbAqKNPBL9r9m9SDgjyjSuLFI03Z5sow/KN/cP5q2s49XhujG58gfahd6qxoBumn+QF3P0TizDd/h95G86HiQbkVAby3GhwmnPo1j39v2VFGN71nd+dw7ijRuKpp+SPNUMK3jqZv8n9npOZK3LBS7j1Egp5c0Y+uG6FY4GqArSV53XwS6X3LDbALOsfdRGaR7SkDvoag048OEs45+bwt7kx9Rdz53jCKNm7KGs2wwbfp/3s67XNtTpvXrL+XZrt470t/DcU+QvnC4mUv97Erw6Ps4GqR7QkBv4cLh9gfFHYQJ5yXf20nmB0j6e1vHKfO5XxTpJ2BU8G2JzO1l3XQsbZzm4k32qyJ/6cl+e40L3F/DcX/N0nDuys6tBA++j2NBuqcE9B5yD2HCBUlSz+Kz/Htbxzk+uztAkX5w8T9dLxV6+9fg27hP2/we74+3crLzf32TvVsV+VoWesE3Yr2otStq1e/jeJDu7wN6r+98c7WG4/2KN5pq8qvv7T19dr9Dkcbt+Et5uX8WRz9f2THJKnTxGSmaTuQ5vf0PhRPDcb9yy8TwO9CvRT/6UksvVs33EU+4GKR7joDeuwoTTuuot/3efi4UpL+3iaPfs7PPx0wUadxO/p/Y0VT9UbFwdnqOgsWHPhaSm2lY1g/RjUNwPzIX2rql/ybOB+iWiTTtj/ZFpep9HA3S/UNAb+oYxocJb+9+ybV7jn1vq79n5/js7sCmQujaG9sNq4adDed7MCtnI6n45aw2m038eewes91NuHI2krNZZQ4Sblw7eb7sHKG7sTPHtzfFjzg5Rur8oWsXjpmeTzLF7ByTr/z3sOp9ZI9RMr/C55T9DMrm+rvPof64ss/i93M99D1MHney3/HMcxXfs6r53LvKZJZo2lZfc62v1ODhfCiKNG03tXgL+dzwdEgLh/miTy0CR+M1BRrPhyINw8X9X7nhH+4iAe4XQbQwlj9oxBeKnFXpb60Bz4AiDQAG4xY8ADAYRRoADEaRBgCDEUT74OcDcN9YSSPj0GbsAG6DIg0ABuOXWZDRmW3EPZmAOVhJA4DBKNJPpDr888CYI0GfZePLwkKz4bEVoawAdijST+RX4Z8VQZ/FY0b6XARSJmMufiwOj60IZQWQQZF+JieHf9YI+uz05GQ2vI9z9Ox0Ykayi12vo4pQVgB5FOkbuF0w7Inhn7WCPvcRSPFLFgqcseZvtoJtrEf4vU8xORbKCqCAIn1ltw6GPT38szroM45A+lSkSJ9JDJL1+rZL0/aXXtLqSMYfDWUFkEaRfjrV4Z87dYM+O7248PufWigdeupp6ccJ373CSUpCWQEUUKSf0OHwz7y6QZ9J4Z8spF3rJH7t13Kpr/QPgqOhrADyKNLPqPMuV5681lhVkYHWcK3Nysn1pZfq5Tbhb/6zFQTS2+v+gNbrm+R5ylwltIZ6V39/rOZCb+G6ch7As+I3Dp9S3GoYljxT+huHnZk2m9nxIw7X2uQPaA21Ljx4YCyAUqykAcBgFGkAMBgZhwBgMFbSAGAwijQAGIwiDQAGo0gDgMEIor3TYNh7nTeA07CSxu/4g7vfxS6atgu7CF7vB1+kabvifP5gt6shAcHPiyKN5+as9jv7ha5U2KfkUorbxub5S086tgEWngJFGk/A16DRrt5pzxpq7Eje8jorVuv1TXYmwSbN19KzdxtgdWYbbWaU62dEkQZy7PSGUJeUbAU7+ij5oeAv5dnJtq94ahRpXEjccy1LjDkaiJt+PB+AWwitjc9RzM3dB+HGfeeuPCVpMMeCb/2BuoUQhMPvI3nR8VDdIyG+kqXhuCx3spiYc52A4PRHURVaXP3Z1/sMUIUijYuIph/SPBVe63jqJv9HHw3E3aYD+AM1miO1UoG1m9DVV/e0i3txEs5KTiphJtM18Lr74tH9khtmk22OvY/KUN2KEN/kw5AjT8vcft1Lz85s+1pw9oDgrF+FFv9inqhGkcZFWMNZNrw2/T99EoibKUyZQNw4ANd2w2xBtYZarxwFo48jOY4nSl843MylfnYFefR9HA3VrRHiGz+iXr4PXtnquEBAcN7JocW/nCcqUaTv2O0CbevJ3OLW9VLPxHc2eJNpeSBuUlBKV5LNf7LTxeesLA3n7i6bsfJ9HAvVrRXiG8uuWpPCdmy1eomA4JLP4qTQ4l/PE1Uo0nfMdsObBdoeF/dpm9/j/fFWTmZE9s6GOAfxeCDulVgvau1+CFS/j+OhutUhvvFBUi2PY6vbjPMHBBc+ipNDi383TxxHkcb5+Ut5crRK9Sqin6/smGQVuviMFE0n8tIrumMBuOG3glwr4Cu3rA6/g9/PPfrRl1p6sWq+j3jCxVDduiG+kqSO3l1b3tKvDgfWCcf+VUBwdl5VocVHP/uTPgMcQpHG+eVbEtFU/VGxcB4OxI3veigE4EZTtbvpVsA2KDfVo/YH6pb+WzrQ9l/5h0Wa9kf7YlT1Po6G6tYN8U1Gv77J9ibqH7iQ97tjnxAQvL2LJde2OfY9qv7sT/sMcMCmQujaG9sNq4adzaOf71xuPu+Vs5FU/HJWu/ntHrPdTbhyNpKzWWUOEm5cO3m+7Byhu7Ezx7c3xbecHCN1/tC1C8dMzyeZYnaOyVf+M616H9ljlMyv8DnlP4P8+yh/fuXsP9tTjh3PLzev5HPNvtdD34vk8fy5M3M+/tnX/wxQpjKZJZq21ddc6ys1kB79fOdyr/POijRtN7V4C+/8fQCXQ1o4bie5SDZeU6CBQyjSuJG4/ys3ZAMh4AiCaHF1/qARX2ByVmwaBFSgSAOAwbgFDwAMRpEGAINRpAHAYATR3mmg673OG1n5fZvJMkQeK2n8zgME0UoqCRb4++5/51IWlHvZ0FzCcU1EkcbTiqZtNZrfGqd3Zwv/aWnIv1DiwIJ94IGd21Hu/L+lSTiuiSjSeAJlQbRJKskqtyWrNdTsiX9FnXBc81Ck8aRC/WVH04dFOK5xKNK4ENODaJPYqm5+hV32VrLzSPdsd+fyB/HzJ83/jGqca/f55sdmBhKOaxqKNC7iHoJoO7ONVofir3bTKs5jrs/s3IORmste/PzsvPOv5ZRzfU3U7kvzXR9+JcfrZosf4bhmqdrL9NH3d775vsy/dPN5r5zD+0AfGr/bRzjehzizRXHmePHzpe+v6jibTcmexquNU7oXdfr5siHB0OUAACAASURBVP2kj8wjfa4D+2RXz7+4T3TpvtHxiTb2kf2065yrfK7FcaXzKPl+Z8eUfy+yn33u+5C8Jzs9/9Dd2BV7bmfea8nfm+N/H+rM0yyspO8YQbTn0tEsWX1q1EytKkN9H5pHmv1PzfSfrzn/U89VdmdGPllchOOahCJ9xwiiPTNrqPUqVZyiH5UlGj6csvdJOK4xKNI4v3sOom3+k72bx4ta+kWQ6onz/5NTz/X1U+y7ht8KtuG7O4TjGqOqH/LoPeKb93Z/6ebzPtaTzvdPd1mFuV7jytnIdjaOfTgbMNM7TI6TfqzQZ93m6RV60vk+5Grj1MjzK8sIDF032+ct+xxqzv/vPen659rlMWYfLIzLn9Mu7eEW57o9fuFzzr145Whj29m/v6Frb2zH2djZN1Geu3jk702dvw9152kKivSti90v3XzeDxBEWzz+sQtw5WMOFuma8z9Lka55rtC1959Pauzh2kQ4rgkIor3TQNd7nXcWQbTXFE3b8XUCfkvwrpBxiNshiBaoRJHGjRBEC9RBxiGujiDa26DdcZ8o0gBgMO6TBgCDUaQBwGAUaQAwGEG0dxroeq/zRn3+4BI5hpd3r/M2FStp/A5BtDfnDw7tgx1vcFUWMHDd8FiCbc+BIo2nZXoQbZVOz5GCb4X5J/ylPEnespCtojhH9lq34BFsew4UaTyBBw2iLU1QiXcctG27uONd9KMv2frX1NUQbPt3FGk8qUcIom3qn53fmjP+4dN6KymO594mtQ6Cbf+MIo0Ledwg2mIf+PB7zcynRlhtWf82k3CTOXZJO2G7Qf8wLo7fqV6Iv/Sk1ks2xaRugO2h+W8fOzh/gm3/iiKNi3isINrjoaXH3utOzbDaQsjtoq++5snzoVw7e+y4nZDqS4ffCux/asrSSyvdl47085XrR5/yGR+af/crk3IyV1/dfA4VwbZ/U7WX6aPv73zzfZl/6ebzfqIg2pNDS2sFwFaH3Jbt11z+3vZzXDmpY6Y/00LA618DbA+9vvxxgm1/j5X0HSOI9lwOBNGeEFp6+L0m8mG1NUNu7dxVPuullbujI27bxH3peLXcetkFCu7zAHcr7O2ET/yMa4ftxiv4PIJtf48ifafif8ZfKoSWINr9D6iq0NLq91rqjCG3u3DXQmBsU/+SvvTJxefcCLb9NYo0zu9hgmhrhJbWea9lfhtyW6b5L+5LF1aN8Urx68fPrrClv4flJvP/LtykHa/miwi2/bWqfsij94hv3tu9V08VRHsktLTGez2Ug1gVcpvpL2feX1l/ONeLTY+37fK+7Cmfcc35r5wD89gdm2DbU1GkKdK/88RBtPn3UfVej4bVHgm5rV+kD4S7xi+IL4r+4TM+Nv+yUNvSecejCbb9BYJoHyLQ9V4RRAtUIeMQt0MQLVCJIo0bIYgWqIOMQ1wdQbRAfRRpADAY90kDgMEo0gBgMIo0ABiMIFoCXQEYjJU0ABiMIg0ABqNI372ykFUAj4IiDQAGo0ib4GgY6eGQ08Mhq+XHLc3xKwkS9QclGXe/DCytHToLoBRF+tYqwkiPhZweC1mtFY5ZN0j0D4GltUJnARxWtZfpo+/vfNv9pKvDSAsK+wmXBV7WCcesGyR6nsDSw6GzAI5hJa1bBrrWCyOtDDktvKBGOGbdING/BpZWhc4COIoiLcl2w9sEulaGkf4y5DR+VxcNxzyFkaGzwJ2gSN9SVRjpr0NOa4Rj1g0S/WtgqXQ8dBbAURTpm4oTlINRP3OfczSdxi2SfDshmqo/KkvCzhfbuMUQjJq5OzB8DXYPJOnN3ew91v6gr0Xm2JaGY6d4rGiqdteTMx7Walt0eo6CxYc+FpL7TokG6qJI35g1XGuzau1uoWs0GurrNV5pWkPNXe2f60vzQrtjW2yzt8XFx3VyfemleqlVuTVcK0wfv9HQsrfWuJU/xWx3N8fuWMmdI7X37O+8y5UnTzVW3gB2iM8yQWemzWZW+pQ1XGszzD6Wj2koG1N13MOvjTSdSPpXGKh16UlqzCOFC4bAaVhJIyfUdyC1Xs5cSrehs1wwBE5CkX5i0XSQ2/Mj0rTdlWe7Om/beBs6+84FQ+BEZBw+tUjTdlOZa5FnDocldBb4G4o0ABiMdgcAGIwiDQAGo0gDgMEIon3w8wG4b6ykn1myOf+19t7P7OZXGnAAII8i/cT8pSfbtuUtr5iQ4qwywQEq7C8CII0i/ayiqSaeo/H8TbY3uU2QrTXU2NF1f0gAd4Yi/aSiz4UCp6dOahvRW7H/NasHAU+KIv2UIn0u9hmD8Tain4WQ2l1YbD6ENtefqDuuwB+oWwgAOBy8uztXLuy2eNgj4bftqaLkHAeDdLMPVof5AhdEkX5G/odGgaNdDmynJycY6aOspn5N1O5L812yy0qO1y0WwbrjvG4qCuxLbphNrjkWvLuTC7vNOxp+W3P/6/glNcJ8gQujSD8hf+lJmXSUjnqHesNBS+N1urB1NFuVFMG649IXDjdzqZ9d9VrDWSbeq7zgZtNqCjrvcm1Pk0yawfLEjaMiTSeenFU2bqwzW8nZRYEBl0eRvoHbBd9KccagsivaRrIJUqEYKlfME52enHwAbd1xGZaGc1d27ryVwbuFsNvicV/f7EwL5+Tw2zphvsAVUKRv4GbBt1KSMbgqfe3Kya0+Dx6kKkD3hHHWi1q7Qv6X4N3cYYfj/Yp3eyfLyXtZmxPmi+dFkX4q2QuGeaUXEL9+iv3X8FuBWsrkAtQdV5jSj762Y34bvFuqo942/HZ7J0tuxFduiR9+p/ZsrRPmC1wBRfqZRJ9aBLYO3vFWdgExGKmZvnC3DaBd5VbsdcdlJ6Rpf7QvoLWDd0uO0y7eeXE4/HYb1Puxb7P4A2U7K3XCfIHLo0g/Ef9jpMA+FgRbcgHRWSn8N0kF0I7UWpUE0NYdl+mFN7V4C/d3aNQK3j3BNvy2NS60J6zhXK7tqbudy7Kn0LVzY6rDfIFLI4j2iXRmG1UlPJSNqRMwW2dcneNUBe+WH8PScL1R8dCHHj/0XKd47BphvsAlsZIGAINRpAHAYJXtDmu41voaM+F8AFBAEC0AGIx2BwAYjCINAAajSAOAwQiiffDzXZI/IKMQuDRW0k9mt0E/gLtAkQYAg1GkAcBgFGkAMBhF+sltL/5l0lDKMvy2wa/J18ELhkeCW+NzpJNjki1GCZMFDqJIQ1r01dc8SR0J5Sq3N7Q/SEJj9+kkc/VVSLaqCG61hutssKz/oZFchYTJAgdRpKGgNdZ6t+GypeHYSSWtxIGstjvP7Mkc78ecPkq94NbOuyvbm2gaJeMPFVzCZAFJFOmbuG0QbZFdFtUSfCuUdmkub4WkAEsvrdQf6wa37jb2b2rUWhVDAVLHJ0wWoEhfnTVcXzCEtjqI9rLOG9xKmCxAkUYV60UtBfoO809EymTE1g1ujabqj1pahdu2x7HBhMkCFGlU6OjdteV125mC6g/6WmTG1QlujYNn5b6rs2179Kf73jdhskABGYeoZA3XCtVWs9nQKHnMWW00VkOT3LjNy0CNbiPV83W0SjIC/UFTo8DRam0l48dyRl01By/azA5EmHfe5U7i/vWmLEx20VS34W0npdD9UnORHnN8ToDpKjf9j6Zt9TVPXf2/rEc/HwCcgnYHABiMIg0ABiPjEAAMxkoaAAxGkQYAg1GkAcBgFGkAMBhBtA8UDAvg8bCSflCHNs0HcF8o0gBgMPbueFCd2UbcAA/cP1bSAGAwivSNbXvHmSDYpJd8PBw22drzQCJLviddO3AWgFEo0ibwuqkg2JUcr6t2u63m9/hgOGw0/ZDmqXDVdMDrIVWBswCMQ5E2ge1qvtsqNd5kPwhaWu0CAOPN6/fhsJI1nGXDVUvTtbOOB84CMBFFWgYEw7ZeiuGq9j+lt8G3MqmvsUzrolsdrXo0cBaAkSjSkmw3vLNgWF+DRiPVDtlos3LOfhYAt0eRvkf+Up6cVDtEijKpsAAeBUX6HjX/ydaXdkHZ0VT9UXD0JQDuE0X6Hm2TtptJP7ovzWl3AA+J3zi8sbLfDLSGa22GhYHadI6PSWfs5I/bmW2KvfHOTOTyAGZjJQ0ABqNIA4DBCKIFAIOxkgYAg1GkAcBgFGkAMBhFGgAMRhDtg58PwH1jJf3M/IEajYautaV0Zte+5IsfWMBxFOkn5i892bYtb3nFjf+d1X7nvtCVRs2r/ZAA7hFF+llFU008R+P5m2xvopssaK2hxo6u+0MCuDMU6ScVfS4UOD11rKHGTqDF5+3aDqVhBAAkUaSfVKTPRSCnF2+51Ok5ChafhRitaNqOw2yjqdrpXnKuP1F3XIE/UNdzNE7ngFUE7EbTdhygm/TTy86RD+EtvDY5R37I/vnMg9n3RHgvrowi/Yz8D40CR73ttnidnpxgpI+ymvo1UbsvzXdJM3FQbqEI1h3ndVORX19yw2xyTa2A3WCk5rIXj5kVc2/K8x59fYwCOeNhMarsEH+gRnOhtzA1n9ZITQo1rogi/YT8pSc5vVRx7Kh3qDcctDRepwtbR7NVSRGsOy594XAzl/rZVW+9gN1sKk1B512u7WmSbrT7S3m2q/faWWaRphNPzmqdnc9sJSdY6IbdITwZivQN3Db41tfSU3ZF22io66k8bTxTzBOdnpx0Mswp4zIsDeeu7Nx5KwN2cyG9Zcd9fbMzLRx/6cl+e62/io4+tQgkr5v/fLuqjvwFzocifQO3DL6NphN5mdVstrUwqXObR/SjWomKdcZZL2rtCvn5Anat4Xi/4t3eyTKsXaITttyw7DPOrq6BS6JIP5XsBcO80guIXz/F/mv4rUAtvVi/GFeY0o++tmPOGrDbUS+5a2V3J0tuxFduiR9+p3IirVe92be96wWQKNLPJfrUIrB18I63sguIwUjN9IW7aKp215Ozyq3Y647LTkjT/mhfQH8dsJvcEZK7oBf/0PnQx0JyM83opB0y+ti3WfyBsp2V7Zj8L9v4GvDbN7giivQT8T9GCuw3vR5c2ZZcQHRWCv9N9j3Z5kit1UaF63Z1x2V64U0t3sL9HRrnDtjtvMuVJ681LrQnrOFcru2pu53LsqfQtXNj1tqsnFxfeqnesYuWwJkRRPtEykJv64wpDcYtUTWuznGqAnbLj2FpuN6oeOhDjx96rlMeALyZHZ80cEGspAHAYBRpADBYZbvDGq61vsZMOB8AFJAWDgAGo90BAAajSAOAwSjSAGAwgmgf/HyX5A/IKAQujZX0k9lt0A/gLlCkAcBgFGkAMBhFGgAMRpF+ctuLf5k0lLIMv23wa/J18ILhkeDW+Bzp5Jhki1HCZIGDKNKQFn31NU9SR0K5yu0N7Q+S0Nh9OslcfRWSrSqCW63hOhss639oJFchYbLAQRRpKGiNtd5tuGxpOHZSSStxIKvtzjN7Msf7MaePUi+4tfPuyvYmmkbJ+EMFlzBZQBJF+iZuG0RbZJdFtQTfCqVdmstbISnA0ksr9ce6wa27jf2bGrVWxVCA1PEJkwUo0ldnDdcXDKGtDqK9rPMGtxImC1CkUcV6UUuBvsP8E5EyGbF1g1ujqfqjllbhtu1xbDBhsgBFGhU6endted12pqD6g74WmXF1glvj4Fm57+ps2x796b73TZgsUEDGISpZw7VCtdVsNjRKHnNWG43V0CQ3bvMyUKPbSPV8Ha2SjEB/0NQocLRaW8n4sZxRV83BizazAxHmnXe5k7h/vSkLk1001W1420kpdL/UXKTHHJ8TYLrKTf+jaVt9zVNX/y/r0c8HAKeg3QEABqNIA4DByDgEAIOxkgYAg1GkAcBgFGkAMBhFGgAMRhDtAwXDngs5iIA5WEkDgMEo0gBgMIo0ABiMIg0ABqNI39g2cDUTBJtctKsMh60IWP3TscuOX3YxsWIOu2DYbZAtFySBk1CkTeB1U0GwKzleV+12W83v8fFw2DoBq785tiR9TdTuS/Ndkkn82sZv5hCM1Fz24jGH87IAlKBIm8B2Nd9tlRpvsh8ELa12BS3evD4fDlsrYPXkYyeClsbrdEhsR7NVOsH7lJBXJ3U+AKegSMuAYNjWSzFc1f6n9Db4Vjr19ZSA1VOPvVUSVaVOT46+9BOdOIfc+QDURzKLJNsN73DTf1tueOUw1ehHX5L+3XIOwJNhJX2PrhGwmm9/SFL4rUAtvVhXmgMAivR9ukLAapC7mBhN1e56clazpA1CyCtwDbQ77tTFA1adlcJ/EzUa3dRDG6Wv/xHyClweQbQE0QIwGO0OADAYRRoADEYQLQAYjJU0ABiMIg0ABqNIA4DBKNIAYDCCaB/8fADuGyvpZ5ZsxH+t3+LOBA0kX/zAAo6jSD8xf+nJtm15yyvuteGsdgEBm9CVCnt/AEijSD+raKqJ52g8f5PtTXSTBa011NjRdX9IAHeGIv2kos+FAqenjjXU2LntlqP2PyIBgEMo0k8p0ucikNOLt7Tr9BwFi8/C/tHRtB1nGlYE0tYdV+AP1PUcjTObW0Watg8n29QJtt0G8Bbe9fa1yTnyQ/bPZx48GrQLXBpF+hn5HxoFjnrbbUc7PTnBSB9lNbVOIO0p47zuvuB1v+SGs0xMVzT9kOapYFvHUzd/jIpg204vncW4e9P6GAVyxsNinNghdYN2gQuiSD8hf+nlMgw76h3qDVcG0p44Ln3hcDOX+tlVrzWcZYNtSwtuRbBt512u7WmSbrT7S3m2q/faebinBO0Cl0ORvoHbBt/6WnrKrmgbDXU9lRRDVQfSnjouw9Jw7srOnTdzq163EGtbI9g2SY1JtXD8pSf77bX+KvqUoF3ggijSN2C7YWo1ee6vWbFYpkTTibzMajbbWpjUuc0jCaQ9yzjrRa1dIfc1aDTU/B7v57Vy6pypeNjheL/i3d7JcnKwgy03LPuMCd/F9VCkn0r2gmFe6QXEqkDaU8cVpvSjr+0Yfykv18qIfmr9OCjRUS+5a2V3J0tuxFduiR9+B/s/ELQLQ1Ckn0n0qUVg6+Adb2UXECsDaU8cl52Qpv3RvoA2/8lOt0eiqfqj4OCrM8dpF++8iH/ofOhjIbmZZvQ2RPdj32bxB8p2VgjahRko0k/E/xgpsN/0enBlW3IBcRdIm/RkmyO1coG0J43L9MKbWryF+zs0rKHmrjRqJs/3pfkv2x3x23mXK09ea1xoT1jDuVzbU3c7l2VPoWvnxqy1WTm5vvRSvWMXLYEzIy38iXRmG1XF8JSNsYZrbYbVx68aV+c4ZWPS2UHlx7A0XG9UPPShxw891ykeuzPThvRz3BAraQAwGEUaAAxW2e6whmutrzETzgcABaSFA4DBaHcAgMEo0gBgMIo0ABiMINoHP98l+QMyCoFLYyX9ZHYb9AO4CxRpADAYRRoADEaRBgCDUaSf3PbiXyYNpSzDbxv8mnwdvGB4JLg1Pkc6OSbZYpQwWeAgijSkRV99zZPUkVCucntD+4MkNHafTjJXX4Vkq4rgVmu4zgbL+h8ayVVImCxwEEUaClpjrXcbLlsajp1U0kocyGq788yezPF+zOmj1Atu7by7sr2JplEy/lDBJUwWkESRvonbBtEW2WVRLcG3QmmX5vJWSAqw9NJK/bFucOtuY/+mRq1VMRQgdXzCZAGK9NVZw/UFQ2irg2gv67zBrYTJAhRpVLFe1FKg7zD/RKRMRmzd4NZoqv6opVW4bXscG0yYLECRRoWO3l1bXredKaj+oK9FZlyd4NY4eFbuuzrbtkd/uu99EyYLFJBxiErWcK1QbTWbDY2Sx5zVRmM1NMmN27wM1Og2Uj1fR6skI9AfNDUKHK3WVjJ+LGfUVXPwos3sQIR5513uJO5fb8rCZBdNdRvedlIK3S81F+kxx+cEmK5y0/9o2lZf89TV/8t69PMBwClodwCAwSjSAGAwMg4BwGCspAHAYBRpADAYRRoADEaRBgCDEUT7QMGwv0GYLGA2VtIAYDCKNAAYjCKNC/A1aLQrdrgDUAdFGgAMRpG+sWjajgNX82Gpua00dwGr20DY9PP51zaKAa2SaoTJ/j7cdXusOGy2K0+BRs0jcwFQC0XaBF8TtfvSfJcaspLjdYtp2cFIzWUvHrPNnfIHajRHaq1SqSOhq69urgjXDZOto+Scc33K1zZ5ZiUnlYhyOCILQBWKtAmClsbrdCBrR7NVWVq2o1Wm4m1DYsNsIbSGWq+c1Ib4dcNk6yg/pzUc3jC2C3hcFGkZEAxbEgulTk+OvpRJh7L/KbM1/sGQWEnNf7K3r68bJltLqO9D5wRwdhRpSbYbmhcMG/3oq3rU9Zk6L+BBUaRN8PWjwt1q4bcCtfRybMF6LGg1/FZgv+nVUv0w2d10joW7xsci3BW4Doq0CYKRmvm7NbqenFXVKtzScOwUg1a3rx9v+9ynhskeC3eNjxWM+pljRdNprq1T9kMBwKko0iZwVgr/TfZ97OTOiVp3RXRmu7s59q9f6C3c5C7srRW62t0W12g0tOytNc71pOOLiZ6622MtewpzVxet4VqbVStzrL5eUz9Qtj8UuAUP+CuCaG8cRBtN22p+j/e31AFACitpADAYRRoADEYQ7Y3R7gBwDEUaAAxGuwMADEaRBgCDUaQBwGAE0T74+QDcN1bSzywJAbjWbwTGgQDZXQL5gQUcR5F+Yv7Sk23b8pZX/L1tZ5UJJ1B+3xEAGRTpZxVNNfEcjedvsr3JbUJjraHGjq77QwK4MxTpJxV9LhQ4PXWsocbObbcetf81qwcBT4oi/ZQifS4COb34txw7PUfB4rOwp/VJIbk1xhX4A3U9R+PM5lZxGO6hZJujgby7w5Y/vg/U/X3gbuF54MIo0s/I/9AocNTb/iZ6pycnGOmjrKbWDcmtO87r7gte90tumN0zO5p+SPN9ss3K8dStE8ib0umV5UP6+hgFqT22a/AHu21fd/NpjdSkUOOKKNJPyF96uVzFjnqHesN1Q3LrjktfONzMpX521WsNZ5mw3PKCmw/kzem8y7U9TTIJB0t5tqv32lukxIG7zmqdnc9sJSdYiGAaXAtF+gZuG3zra+kpu6JtNOL0lUIxVP2Q3LrjMiwN567s3Hkzt+plY2Fi+UDekuO+vtmZFo6/9GS/vdZfRUefWgTaBRfsv7oqmRFwMRTpG7hl8G00ncjLrGazrYVJnds86obR1hlnvai1K+S+Bo1GvCvgdl4rp86Ziocdjvcr3u2dLCcHO9hyw7LPOLu6Bi6JIv1UshcM80ovINYNyf1tmG70o6/tGH8pL9fKiMqScmvpqJfctbK7kyU34njg7pGQX+CKKNLPJPrUIrB18I63sguIdUNyfxWmG2naH+0LaPOf7HR7JJqqPwoOvjpznHbxzov4h86HPhaSm2lG1wnc3Y7J/7KNrwG/fYMrokg/Ef9jpMB+0+vBlW3JBcS6Ibl1x2V64U0t3sL9HRrWUPN0WG5fmv+y3RG/nXe58uS1xoX2RP3AXSfXl16qR0ADrui/W08A19OZbVSV8FA2xhqutRlWH79qXJ3jlI1Jx1KUH8PScL1R8dCHHj/0XKd47M5Mm83s+KSBC2IlDQAGo0gDgMEq2x3WcK31NWbC+QCggCBaADAY7Q4AMBhFGgAMRpEGAIMRRPvg57skf0BGIXBprKSfzG6DfgB3gSINAAajSAOAwSjSAGAwivST2178y6ShlGX4bYNfk6+DFwyPBLfG50gnxyRbjBImCxxEkYa06KuveZI6EspVbm9of5CExu7TSebqq5BsVRHcag3X2WBZ/0MjuQoJkwUOokhDQWus9W7DZUvDsZNKWokDWW13ntmTOd6POX2UesGtnXdXtjfRNErGHyq4hMkCkijSN3HbINoiuyyqJfhWKO3SXN4KSQGWXlqpP9YNbt1t7N/UqLUqhgKkjk+YLECRvjpruL5gCG11EO1lnTe4lTBZgCKNKtaLWgr0HeafiJTJiK0b3BpN1R+1tAq3bY9jgwmTBSjSqNDRu2vL67YzBdUf9LXIjKsT3BoHz8p9V2fb9uhP971vwmSBAjIOUckarhWqrWazoVHymLPaaKyGJrlxm5eBGt1GqufraJVkBPqDpkaBo9XaSsaP5Yy6ag5etJkdiDDvvMudxP3rTVmY7KKpbsPbTkqh+6XmIj3m+JwA01Vu+h9N2+prnrr6f1mPfj4AOAXtDgAwGEUaAAxGxiEAGIyVNAAYjCINAAajSAOAwSjSAGAwgmgfKBj2nAiZBczAShoADEaRBgCDUaQBwGAUaQAwGEX65nwNUqkhhR00K0NUky0+DySz7IJZt0Gy6RPkjl12oTATUPuL1BcAf0ORvilfg0ZXWu0TQ3o/qSJcI0Q1mn5I89Tz6aDXrWCk5rIXj9nmVfkDNZojtVLnnuszW4TzAbV2ybEBXBRF+paiH33JVjpisDPcBrPWC1G1hrPs86Up245WmTDBbbhsmMkYtIbDTPJJPqD29c1OBdQCuAaKtG4YDGsNNXYCjZolbYwTQlQzLYluScSq/U/ZLfVDfZeGy+Zfln2V9dLaB9QCuAqKtCTbDW8WDNuZJa0EjdTM94wrQ1Tjfnbze7x/buVUv+HoR1/VowAYgCJtBEvD9UabdDhrnRBVfykv18qIfmqU3yRcloBWwHwU6VuKphoc/NXrGiGqzX+y9aWf/VVE9UeBqsXhssGonwmXjaZT7t4ADEORviVrqHf19/3k5kJv4f5CoTVca7Nycn3ppXrblfM2cbuZPNeX5nXaHbtjt/avbTTU1+vR1gyA6yOIliBaAAZjJQ0ABqNIA4DBCKIFAIOxkgYAg1GkAcBgFGkAMBhFGgAMRhDtg58PwH1jJf3MkiCAa20RnQ0QOBw0AGCPIv3E/KUn27blLa+4Y4ez2u/YF7pSYW8SAGkU6WcVTTXxHI3nb/ud967NGmrs6Lo/JIA7Q5F+UtHnQoHTUycJHrjltqX5cAEAexTppxTpcxHI6cV73nV6joLFZyEWK5q2S/bwHAAACtpJREFU4xCCfBhurj9Rd1yBP1DXczTObG71h2Dd3WHLH9+9NjlHfsj++cyDFUHAwGVRpJ+R/6FR4Ki33Ze005MTjPRRVlO/Jmr3pfkuFWYlx+sWi2DdcV43FfX1JTfMJtf8Olg3pTzn0dfHKJAz3mZI1lAjCBi4NIr0E/KXnuT0UsWxo96h3nDQ0nidLmwdzVYlRbDuuPSFw81c6mdXvb8L1s3pvMu1PU3SjXZ/Kc929V57w+x6QcDApVGkb+BmwbeSJF9LT9kVbaOhrqeSYqhcMU90enLSiTCnjMuwNJy7snPnPT1Yt3jc1zc708Lxl57st9f6q+gTgoCBS6JI38Atg2+j6UReZjWbbS1M6tzmUTfIts4460WtXSH/ZbBu2WGH4/2Kd3sny8nBDlVBwMDlUaSfSvaCYV7pBcSvn2L/NfxWoJZerF+MK0zpR1/bMb8N1i3VUS+5a2V3J0tuxFduiR9+p/Ih6wQBA1dAkX4m0acWga2Dd7yVXUAMRmqmL9xFU7W7npxVbsVed1x2Qpr2R/sC+utg3eSOkNwFvfiHzoc+FpKbaUZvQ34/9m0Wf6BsZ6VGEDBwBRTpJ+J/jBTYb3o9uLItuYDorBT+m6TCckdqrTYqXLerOy7TC29q8Rbu79D4Q7Bu+dt5lytPXmtcaE9Yw7lc21N3O5dlT6Fr58ZUBAEDV/DfrSeA6+nMNqqK4SkbYw3X2gyrj181rs5xysaks4PKj2FpuN6oeOhDjx96rlM8dmemzWZ2fNLABbGSBgCDUaQBwGCV7Q5ruNb6GjPhfABQQFo4ABiMdgcAGIwiDQAGo0gDgMEIon3w812SPyCjELg0VtJPZrdBP4C7QJEGAINRpAHAYBRpADAYRfrJbS/+ZdJQyjL8tsGvydfBC4ZHglvjc6STY5ItRgmTBQ6iSENa9NXXPEkdCeUqtze0P0hCY/fpJHP1VUi2qghutYbrbLCs/6GRXIWEyQIHUaShoDXWerfhsqXh2EklrcSBrLY7z+zJHO/HnD5KveDWzrsr25toGiXjDxVcwmQBSRTpm7htEG2RXRbVEnwrlHZpLm+FpABLL63UH+sGt+429m9q1FoVQwFSxydMFqBIX501XF8whLY6iPayzhvcSpgsQJFGFetFLQX6DvNPRMpkxNYNbo2m6o9aWoXbtsexwYTJAhRpVOjo3bXldduZguoP+lpkxtUJbo2DZ+W+q7Nte/Sn+943YbJAARmHqGQN1wrVVrPZ0Ch5zFltNFZDk9y4zctAjW4j1fN1tEoyAv1BU6PA0WptJePHckZdNQcv2swORJh33uVO4v71pixMdtFUt+FtJ6XQ/VJzkR5zfE6A6So3/Y+mbfU1T139v6xHPx8AnIJ2BwAYjCINAAYj4xAADMZKGgAMRpEGAINRpAHAYBRpADAYQbQPFAybR1AscP9YSd+ZQ5vhA3hMFGkAMBh7d9yZzmwjbmwHngcraQAwGEX6hsr6y2VBqtG0vRtXfI2vQSp1pKxdnQmZ/UVyC4DboUjfUDFsNdLnIpAy+XvxY06vLG/F16DRlVb7xJHeTy5gNR8ya6eCYAEYjyJ9S52eHH1pFy6S5Ana6TSR6FOLwFFpjY5+9CVb6YjCzjAb7JoPmX19s1MhswBMR5HWLYNh9/FQkpKIqLHmb7aCbV5V+F0aGyVJsoYaO4FGzWKiyVY+ZNZ6ae1DZgEY7+mL9K2DYeN4qE9FivSZRERZr2+ykzaIv/QOtDqS18+SNoZGaja4hxp4NE9fpG+u04sTsf1PLfSmV0tJgKqnpe9r6R1odWRYGq432tQKdwVwTyjSN5e0PCYL6e016SfHveOv5VJfh1odkhRNNaAiAw+NIm2A5j9bQSC9ve4v+Vmvb5LnSf8OBLRKkjXUu/r7/ndzobdwLeIagcfx9EG0AGAyVtIAYDCKNAAYjCBaADAYK2kAMBhFGgAMRpEGAINRpAHAYE8fRHsu9zpvAGZjJf2I/MHBAIBLyIYKxF/8wALOgyL9gPylJ9u25S2vuCOes9rv/Be60qh5tR8SwCOjSD+aaKqJ52g8f7vdjnjWUGNH1/0hATwoivSDiYMDeuokgQCLz9u1HfKBAwBOR5F+KNk8xH2gQG7UNtg2mqqd7iWXheLWGFfgD9T1HI0zm2RFmrYPJ9bsAniTfnrZOcqCezOvTc6RH1IW7lt4TweSbYBbo0g/Ev9Do3QeYqcnJxjpo6ymfk3U7kvzXYLMSo7XLRbBuuO87r7gdb/khtlEmmj6Ic33iTUrpyQQNxipuezFY2bFXbSLwb2S5OtjFMgZZ7Mdj/IHybauqfm0RmpSqGEgivQD8ZeelAkJ6Kh3qDcctDRepwtbR7NVSRGsOy594XAzl/rZVa81nGX2uS4vuI5WJcV5/6J3ubanSbrR7i/l2a7eK9NrtiJNJ56cVXbf7c5sFSfkUKVhGIr0Gd0u0FaSfC09ZVe0jYa6nkqKoXLFPJFPLz9lXIal4dzd5TRuZW7V63rFl9n/dLyLHSfWpFs4/tKTvUu0qSH61CKQvG7+8+2qZEbAzVGkz8h2w5sF2kbTibzMajbbWpjUuc0j+tFXnTdaZ5z1otaukPsaNBpqfo/381o5dc5UPOxwvF/xbu9kOTkgwpYbln3GpNrAPBTph5C9YJhXegHx66fYfw2/FailF+sX4wpT+tHXdoy/lJdrZUQ/tX4clEgyIT+j/Z0suRFfuSV++B3s/2C96s2+7V0vwCko0o8g+tQisA/HIZZdQAxGaqYv3EVTtbuenFVuxV53XHZCmvZH+wLa/Cc73R6JpuqPgoOvzhynXbzzIv6h86GPheRmmtFJO2T0sW+z+ANlOyvbMflftvE14LdvYCCK9APwP0YK7De9HlzZllxAdFYK/01SIbYjtVYbFa7b1R2X6YU3tXgL93doWEPNXWnUTJ7vS/Nftjvit/MuV5681rjQnrCGc7m2p+52LsueQtfOjVlrs3JyfemlescuWgI3QhDtmdzTvKNpO+4PVxSluuMAXA4raQAwGEUaAAz2X9UAa7jW+hozudH5zuVe5w3AbKSFA4DBaHcAgMEo0gBgMIo0ABiMINozudd5l/EHZBQCpmAl/SB2G/QDeCgUaQAwGEUaAAxGkQYAg1GkH9T24l8mDaUsw28b/Jp8HbxgeCS4NT5HOjkm2WKUMFngzyjSj2zRV1/zJHUklKvc3tD+IAmN3aeTzNVXIdmqIrjVGq6zwbL+h0ZyFRImC/wZRfqBBa1xautUS8Oxk0paiQNZbXee2ZM53o85fZR6wa2dd1e2N9E0SsYfKriEyQInoUif0W2DaIvssqiW4FuhtEtzeSskBVh6aaX+WDe4dbexf1Oj1qoYCpA6PmGyQH0U6TOxhusLhtBWB9Fe1nmDWwmTBeqjSD8r60UtBfoO809EymTE1g1ujabqj1pahdu2x7HBhMkCdVGkn1ZH764tr9vOFFR/0NciM65OcGscPCv3XZ1t26M/3fe+CZMFfq1y0388Lmu4Vqi2ms2GRsljzmqjsRqa5MZtXgZqdBupnq+j1WYmSfIHTY0CR6u1lYwfyxl11Ry8aDM7EGHeeZc7ifvXm7Iw2UVT3Ya3nZRC90vNRXrM8TkBj4IgWgAwGO0OADAYRRoADEbGIQAYjJU0ABiMIg0ABqNIA4DBKNIAYDCKNAAYjCINAAajSAOAwSjSAGAwijQAGIwiDQAG+z+3f6gjdNn3NgAAAABJRU5ErkJggg==;" vertex="1" parent="1">
          <mxGeometry x="854.5" y="60" width="361" height="705" as="geometry" />
        </mxCell>
      </root>
    </mxGraphModel>
  </diagram>
</mxfile>
